<?xml version="1.0" standalone="yes"?>
<svg xmlns="http://www.w3.org/2000/svg" width="360" height="360">
<path style="fill:#090908; stroke:none;" d="M0 0L0 360L360 360L360 0L0 0z"/>
<path style="fill:#d8e3e1; stroke:none;" d="M162 8L162 9L168 9L162 8z"/>
<path style="fill:#feaa02; stroke:none;" d="M168 8.42438C134.546 12.8189 103.213 21.5465 76 42.6651C-12.1479 111.071 -14.2079 247.736 75 316.5C92.1614 329.729 112.17 339.628 133 345.573C155.28 351.931 179.058 353.495 202 350.715C226.912 347.695 252.019 338.804 273 324.997C368.34 262.258 378.13 124.417 292 49.2855C274.816 34.2962 254.557 23.5192 233 16.3333C213.007 9.66907 189.074 5.6561 168 8.42438z"/>
<path style="fill:#d8e3e1; stroke:none;" d="M192 8L192 9L198 9L192 8M154 9L154 10L158 10L154 9M202 9L202 10L206 10L202 9M148 10L148 11L151 11L148 10M209 10L209 11L212 11L209 10M142 11L142 12L146 12L142 11M214 11L214 12L218 12L214 11M138 12L138 13L141 13L138 12M219 12L219 13L222 13L219 12M134.667 13.3333L135.333 13.6667L134.667 13.3333M224.667 13.3333L225.333 13.6667L224.667 13.3333M131.667 14.3333L132.333 14.6667L131.667 14.3333M227.667 14.3333L228.333 14.6667L227.667 14.3333M128.667 15.3333L129.333 15.6667L128.667 15.3333M230.667 15.3333L231.333 15.6667L230.667 15.3333M125.667 16.3333L126.333 16.6667L125.667 16.3333M233.667 16.3333L234.333 16.6667L233.667 16.3333M122.667 17.3333L123.333 17.6667L122.667 17.3333M236.667 17.3333L237.333 17.6667L236.667 17.3333M119.667 18.3333L120.333 18.6667L119.667 18.3333M239.667 18.3333L240.333 18.6667L239.667 18.3333M117 19L118 20L117 19M242 19L243 20L242 19M114.667 20.3333L115.333 20.6667L114.667 20.3333M244.667 20.3333L245.333 20.6667L244.667 20.3333M112 21L113 22L112 21M247 21L248 22L247 21M109.667 22.3333L110.333 22.6667L109.667 22.3333M249.667 22.3333L250.333 22.6667L249.667 22.3333M107.667 23.3333L108.333 23.6667L107.667 23.3333M251.667 23.3333L252.333 23.6667L251.667 23.3333M105 24L106 25L105 24M253.667 24.3333L254.333 24.6667L253.667 24.3333M103 25L104 26L103 25M256 25L257 26L256 25M101.667 26.3333L102.333 26.6667L101.667 26.3333M257.667 26.3333L258.333 26.6667L257.667 26.3333M99.6667 27.3333L100.333 27.6667L99.6667 27.3333M259.667 27.3333L260.333 27.6667L259.667 27.3333M97.6667 28.3333L98.3333 28.6667L97.6667 28.3333M261.667 28.3333L262.333 28.6667L261.667 28.3333M95.6667 29.3333L96.3333 29.6667L95.6667 29.3333M263.667 29.3333L264.333 29.6667L263.667 29.3333M94 30L95 31L94 30M265 30L266 31L265 30M92 31L93 32L92 31M267 31L268 32L267 31M90.6667 32.3333L91.3333 32.6667L90.6667 32.3333M268.667 32.3333L269.333 32.6667L268.667 32.3333M89 33L90 34L89 33M270 33L271 34L270 33M87 34L88 35L87 34M272 34L273 35L272 34M86 35L87 36L86 35M273 35L274 36L273 35M84 36L85 37L84 36M275 36L276 37L275 36M83 37L84 38L83 37M276 37L277 38L276 37M81 38L82 39L81 38M278 38L279 39L278 38M80 39L81 40L80 39M279 39L280 40L279 39M78 40L79 41L78 40M280.667 40.3333L281.333 40.6667L280.667 40.3333M77 41L78 42L77 41M282 41L283 42L282 41M76 42L77 43L76 42M283 42L284 43L283 42M73 44L74 45L73 44M286 44L287 45L286 44M72 45L73 46L72 45M287 45L288 46L287 45M71 46L72 47L71 46M288 46L291 48L288 46M69.6667 47.3333L70.3333 47.6667L69.6667 47.3333M68 48L69 49L68 48M291 48L292 49L291 48M67 49L68 50L67 49M292 49L293 50L292 49M66 50L67 51L66 50M293 50L294 51L293 50M65 51L66 52L65 51M294 51L295 52L294 51M64 52L65 53L64 52M295 52L296 53L295 52M63 53L64 54L63 53M296 53L297 54L296 53M62 54L63 55L62 54M297 54L298 55L297 54M60.6667 55.3333L61.3333 55.6667L60.6667 55.3333M298 55L299 56L298 55M59 56L60 57L59 56M58 57L59 58L58 57M57 58L58 59L57 58M55 61L56 62L55 61M304 61L305 62L304 61M54 62L55 63L54 62M305 62L306 63L305 62M53 63L54 64L53 63M306 63L307 64L306 63M52 64L53 65L52 64M307 64L308 65L307 64M51 65L52 66L51 65M308 65L309 66L308 65M50 66L51 67L50 66M309 66L310 67L309 66M49 67L50 68L49 67M152 71L153 77L199 77C198.99 74.049 199.512 70.0668 196.682 68.179C193.622 66.1379 188.484 67 185 67C174.639 67 160.076 64.0246 152 71M310 67L311 68L310 67M48 68L49 69L48 68z"/>
<path style="fill:#55b30d; stroke:none;" d="M155 68L155 69L158 69L155 68M159 68L160 69L159 68M192 68L192 69L195 69L192 68z"/>
<path style="fill:#d8e3e1; stroke:none;" d="M311 68L312 69L311 68M47.3333 69.6667L47.6667 70.3333L47.3333 69.6667M312.333 69.6667L312.667 70.3333L312.333 69.6667z"/>
<path style="fill:#55b30d; stroke:none;" d="M152.667 70.3333L153.333 70.6667L152.667 70.3333M196 70L198 72L198 70L196 70z"/>
<path style="fill:#d8e3e1; stroke:none;" d="M46 71L47 72L46 71z"/>
<path style="fill:#55b30d; stroke:none;" d="M155 71L154 74L155 74L155 71M194 71L193 74L194 74L195 74L194 71z"/>
<path style="fill:#d8e3e1; stroke:none;" d="M313 71L314 72L313 71M45 72L46 73L45 72z"/>
<path style="fill:#55b30d; stroke:none;" d="M159.333 72.6667L159.667 73.3333L159.333 72.6667z"/>
<path style="fill:#d8e3e1; stroke:none;" d="M314 72L315 73L314 72M44 73L45 74L44 73z"/>
<path style="fill:#55b30d; stroke:none;" d="M152 73L152 77L153 77L152 73M157 73L158 74L157 73M197 73L194 75L194 76L197 73z"/>
<path style="fill:#d8e3e1; stroke:none;" d="M315 73L316 74L315 73z"/>
<path style="fill:#a7700b; stroke:none;" d="M111 74L112 75L111 74M199 74L199 78C196.604 77.4254 196.513 77.5249 196 80L195 80C192.383 75.9631 187.394 77 183 77L152 77L152 84C143.77 84 132.998 82.1368 125.059 84.3179C120.338 85.6148 120.604 90.5977 124 93C119.49 81.5151 138.971 84.7514 146 85.0185C150.287 85.1815 153.806 87.4521 158 87.892C168.984 89.044 180.958 88.3277 191.999 87.9846C203.461 87.6283 214.971 85 227 85L227 84C217.346 84 204.77 86.5502 197 80L200 75L204 75L199 74M103 75L104 76L103 75z"/>
<path style="fill:#090908; stroke:none;" d="M200 75C198.485 87.3211 209.657 83.9515 219 84.0008C222.302 84.0182 230.516 84.2445 228.477 89.8673C226.328 95.7907 208.122 93 203 93L145 93C139.59 93 127.991 95.1859 123.438 91.9722C119.779 89.3894 122.669 85.1973 126.019 84.3179C133.77 82.2833 143.992 84 152 84L152 75L115 75C109.068 75 102.793 74.4043 98.3943 79.2137C90.6126 87.723 95 111.088 95 122L95 229C95 239.631 90.9323 261.139 97.5139 269.956C103.429 277.879 117.303 275 126 275L178 275C185.69 275 195.511 273.365 202.961 275.318C207.875 276.606 211.216 282.547 215 285.671C221.636 291.15 231.368 294.289 240 293.896C260.496 292.961 277.183 275.622 276.406 255C276.075 246.23 273.267 237.786 267.532 231.039C264.181 227.096 257.041 224.375 256.148 218.957C254.43 208.527 256 196.575 256 186L256 118C256 107.369 259.86 87.4211 251.775 79.2137C247.143 74.5108 241.074 75 235 75L200 75z"/>
<path style="fill:#55b30d; stroke:none;" d="M157 75L158 76L157 75M159 75L160 76L159 75z"/>
<path style="fill:#a7700b; stroke:none;" d="M246.667 75.3333L247.333 75.6667L246.667 75.3333z"/>
<path style="fill:#d8e3e1; stroke:none;" d="M42 76L43 77L42 76z"/>
<path style="fill:#a7700b; stroke:none;" d="M101 76L102 77L101 76M248 76L249 77L248 76z"/>
<path style="fill:#d8e3e1; stroke:none;" d="M317 76L318 77L317 76M41 77L42 78L41 77z"/>
<path style="fill:#55b30d; stroke:none;" d="M194 77L195 80L196 80L196 77L194 77M198 77L199 78L198 77z"/>
<path style="fill:#a7700b; stroke:none;" d="M250 77L251 78L250 77z"/>
<path style="fill:#d8e3e1; stroke:none;" d="M318 77L319 78L318 77M40.3333 78.6667L40.6667 79.3333L40.3333 78.6667z"/>
<path style="fill:#a7700b; stroke:none;" d="M98 78L99 79L98 78M251 78L252 79L251 78z"/>
<path style="fill:#d8e3e1; stroke:none;" d="M319.333 78.6667L319.667 79.3333L319.333 78.6667z"/>
<path style="fill:#a7700b; stroke:none;" d="M97 79L98 80L97 79M252 79L253 80L252 79z"/>
<path style="fill:#d8e3e1; stroke:none;" d="M39 80L40 81L39 80z"/>
<path style="fill:#55b30d; stroke:none;" d="M197.667 80.3333L198.333 80.6667L197.667 80.3333z"/>
<path style="fill:#a7700b; stroke:none;" d="M253 80L254 81L253 80z"/>
<path style="fill:#d8e3e1; stroke:none;" d="M320 80L321 81L320 80M38 81L39 82L38 81z"/>
<path style="fill:#a7700b; stroke:none;" d="M96 81L97 82L96 81z"/>
<path style="fill:#55b30d; stroke:none;" d="M195.333 81.6667L195.667 82.3333L195.333 81.6667z"/>
<path style="fill:#a7700b; stroke:none;" d="M254.333 81.6667L254.667 82.3333L254.333 81.6667z"/>
<path style="fill:#d8e3e1; stroke:none;" d="M321 81L322 82L321 81M37 83L38 84L37 83z"/>
<path style="fill:#a7700b; stroke:none;" d="M95 83L96 84L95 83z"/>
<path style="fill:#55b30d; stroke:none;" d="M153.667 83.3333L154.333 83.6667L153.667 83.3333M192.333 83.6667L192.667 84.3333L192.333 83.6667z"/>
<path style="fill:#d8e3e1; stroke:none;" d="M322 83L323 84L322 83M36 84L37 85L36 84z"/>
<path style="fill:#55b30d; stroke:none;" d="M196 84L196 87L198 86L198 85L196 84z"/>
<path style="fill:#a7700b; stroke:none;" d="M255.333 84.6667L255.667 85.3333L255.333 84.6667z"/>
<path style="fill:#feaa02; stroke:none;" d="M123.608 86.0278C115.502 92.617 135.807 93 138 93L204 93C209.323 93 223.455 95.4839 227.381 91.3974C234.735 83.7435 212.752 85 210 85C192.83 85 174.634 91.6461 157 87.5856C149.794 85.9264 130.237 80.6389 123.608 86.0278z"/>
<path style="fill:#a7700b; stroke:none;" d="M228.333 85.6667L228.667 86.3333L228.333 85.6667z"/>
<path style="fill:#d8e3e1; stroke:none;" d="M35 86L36 87L35 86z"/>
<path style="fill:#a7700b; stroke:none;" d="M94 86L94 264L95 264L95 139L95 103L94 86z"/>
<path style="fill:#d8e3e1; stroke:none;" d="M324 86L325 87L324 86M34 87L35 88L34 87M325 87L326 88L325 87z"/>
<path style="fill:#a7700b; stroke:none;" d="M229.333 88.6667L229.667 89.3333L229.333 88.6667z"/>
<path style="fill:#d8e3e1; stroke:none;" d="M33 89L34 90L33 89M326 89L327 90L326 89M32 91L33 92L32 91z"/>
<path style="fill:#a7700b; stroke:none;" d="M228 91L229 92L228 91z"/>
<path style="fill:#d8e3e1; stroke:none;" d="M327 91L328 92L327 91M31 92L32 93L31 92z"/>
<path style="fill:#a7700b; stroke:none;" d="M227 92L228 93L227 92z"/>
<path style="fill:#d8e3e1; stroke:none;" d="M328 92L329 93L328 92M30 94L31 95L30 94M329 94L330 95L329 94M29 96L30 97L29 96M330 96L331 97L330 96M28.3333 97.6667L28.6667 98.3333L28.3333 97.6667M331 98L332 99L331 98M27.3333 99.6667L27.6667 100.333L27.3333 99.6667M332.333 99.6667L332.667 100.333L332.333 99.6667M26.3333 101.667L26.6667 102.333L26.3333 101.667M333 102L334 103L333 102M25 103L26 104L25 103z"/>
<path style="fill:#a7700b; stroke:none;" d="M110 103L110 104L241 104C230.496 99.5924 212.42 103 201 103L110 103z"/>
<path style="fill:#d8e3e1; stroke:none;" d="M334 103L335 104L334 103M201 263C195.938 235.733 219.116 218 244 218L244 137C244 129.533 247.169 112.607 242.972 106.318C239.307 100.825 219.072 104 213 104L135 104C128.975 104 112.194 101.101 107.767 105.589C102.641 110.784 106 130.097 106 137L106 227C106 235.663 105.886 244.334 106.011 252.996C106.052 255.864 105.671 260.213 108.458 262.012C113.982 265.575 127.545 263 134 263L201 263z"/>
<path style="fill:#a7700b; stroke:none;" d="M242 104L243 105L242 104z"/>
<path style="fill:#d8e3e1; stroke:none;" d="M24 105L25 106L24 105z"/>
<path style="fill:#a7700b; stroke:none;" d="M243 105L244 106L243 105z"/>
<path style="fill:#d8e3e1; stroke:none;" d="M335.333 105.667L335.667 106.333L335.333 105.667z"/>
<path style="fill:#a7700b; stroke:none;" d="M106 106L107 107L106 106z"/>
<path style="fill:#d8e3e1; stroke:none;" d="M23.3333 107.667L23.6667 108.333L23.3333 107.667M336 108L337 109L336 108z"/>
<path style="fill:#55b30d; stroke:none;" d="M106 109L107 110L106 109z"/>
<path style="fill:#d8e3e1; stroke:none;" d="M22 110L23 111L22 110M337 110L338 111L337 110M21 112L22 113L21 112M338 112L339 113L338 112M20.3333 114.667L20.6667 115.333L20.3333 114.667M339.333 114.667L339.667 115.333L339.333 114.667M19 117L20 118L19 117M340 117L341 118L340 117M18 120L19 121L18 120M341 120L342 121L341 120M17.3333 122.667L17.6667 123.333L17.3333 122.667z"/>
<path style="fill:#a7700b; stroke:none;" d="M129 122L128 124L129 122z"/>
<path style="fill:#090908; stroke:none;" d="M130.337 123.027C122.343 128.61 142.001 129 144 129L199 129C203.534 129 216.915 131.248 219.953 127.262C225.077 120.539 204.591 122 202 122L150 122C144.963 122 134.61 120.043 130.337 123.027z"/>
<path style="fill:#d8e3e1; stroke:none;" d="M342.333 122.667L342.667 123.333L342.333 122.667z"/>
<path style="fill:#a7700b; stroke:none;" d="M221 124L221 127L222 127L221 124z"/>
<path style="fill:#d8e3e1; stroke:none;" d="M16.3333 125.667L16.6667 126.333L16.3333 125.667z"/>
<path style="fill:#55b30d; stroke:none;" d="M127 125L128 126L127 125z"/>
<path style="fill:#d8e3e1; stroke:none;" d="M343.333 125.667L343.667 126.333L343.333 125.667z"/>
<path style="fill:#a7700b; stroke:none;" d="M128 127L129 128L128 127z"/>
<path style="fill:#d8e3e1; stroke:none;" d="M15.3333 128.667L15.6667 129.333L15.3333 128.667z"/>
<path style="fill:#a7700b; stroke:none;" d="M129 128L130 129L129 128M219 128L220 129L219 128z"/>
<path style="fill:#d8e3e1; stroke:none;" d="M344.333 128.667L344.667 129.333L344.333 128.667M14.3333 131.667L14.6667 132.333L14.3333 131.667M345.333 131.667L345.667 132.333L345.333 131.667M13 134L13 137L14 137L13 134M346.333 135.667L346.667 136.333L346.333 135.667M12 138L12 141L13 141L12 138M347.333 139.667L347.667 140.333L347.333 139.667M11 142L11 146L12 146L11 142M348 143L348 146L349 146L348 143z"/>
<path style="fill:#a7700b; stroke:none;" d="M129 145L128 147L129 145z"/>
<path style="fill:#090908; stroke:none;" d="M130.337 146.023C122.956 151.055 142.121 151 144 151L199 151C203.24 151 217.235 153.23 219.914 149.416C223.952 143.665 203.476 145 201 145L150 145C144.91 145 134.684 143.06 130.337 146.023z"/>
<path style="fill:#a7700b; stroke:none;" d="M221.333 147.667L221.667 148.333L221.333 147.667z"/>
<path style="fill:#d8e3e1; stroke:none;" d="M10 148L10 151L11 151L10 148z"/>
<path style="fill:#55b30d; stroke:none;" d="M221 149L222 150L221 149z"/>
<path style="fill:#d8e3e1; stroke:none;" d="M349.333 149.667L349.667 150.333L349.333 149.667z"/>
<path style="fill:#a7700b; stroke:none;" d="M128 150L129 151L128 150M220 150L221 151L220 150M130 151L130 152L220 152L192 151L130 151z"/>
<path style="fill:#d8e3e1; stroke:none;" d="M9 154L9 157L10 157L9 154M350 154L350 158L351 158L350 154M8 161L8 168L9 168L8 161M351 163L351 168L352 168L351 163z"/>
<path style="fill:#a7700b; stroke:none;" d="M129 168L130 169L129 168z"/>
<path style="fill:#090908; stroke:none;" d="M130.323 168.742C126.21 170.853 130.315 173.696 133.019 173.941C153.973 175.841 175.952 174 197 174C202.18 174 215.242 176.361 219.377 172.977C225.88 167.656 203.973 168 202 168L151 168C145.326 168 135.454 166.106 130.323 168.742z"/>
<path style="fill:#a7700b; stroke:none;" d="M221.333 170.667L221.667 171.333L221.333 170.667M128 173L129 174L128 173M220 173L221 174L220 173M130 174L130 175L220 175L192 174L130 174z"/>
<path style="fill:#55b30d; stroke:none;" d="M132 190L133 191L132 190z"/>
<path style="fill:#a7700b; stroke:none;" d="M135 190L136 191L135 190z"/>
<path style="fill:#55b30d; stroke:none;" d="M136 190L136 191L174 191C163.964 186.789 146.911 190 136 190z"/>
<path style="fill:#a7700b; stroke:none;" d="M175 190L175 191L218 191C206.774 186.29 187.219 190 175 190z"/>
<path style="fill:#55b30d; stroke:none;" d="M218 190L219 191L218 190z"/>
<path style="fill:#090908; stroke:none;" d="M129.623 192.023C123.235 197.251 142.249 197 144 197L199 197C203.24 197 217.235 199.23 219.914 195.416C223.943 189.677 204.39 191 202 191L149 191C144.38 191 133.346 188.976 129.623 192.023z"/>
<path style="fill:#a7700b; stroke:none;" d="M220 191L221 192L220 191z"/>
<path style="fill:#d8e3e1; stroke:none;" d="M8 192L8 199L9 199L8 192z"/>
<path style="fill:#a7700b; stroke:none;" d="M221.333 193.667L221.667 194.333L221.333 193.667z"/>
<path style="fill:#d8e3e1; stroke:none;" d="M351 193L351 197L352 197L351 193z"/>
<path style="fill:#a7700b; stroke:none;" d="M220 196L221 197L220 196z"/>
<path style="fill:#55b30d; stroke:none;" d="M130 197L131 198L130 197z"/>
<path style="fill:#a7700b; stroke:none;" d="M131 197L131 198L219 198L192 197L131 197z"/>
<path style="fill:#d8e3e1; stroke:none;" d="M9 203L9 206L10 206L9 203M350.333 203.667L350.667 204.333L350.333 203.667M10 209L10 212L11 212L10 209M349.333 210.667L349.667 211.333L349.333 210.667z"/>
<path style="fill:#55b30d; stroke:none;" d="M216 213L217 214L216 213z"/>
<path style="fill:#d8e3e1; stroke:none;" d="M11 214L11 217L12 217L11 214z"/>
<path style="fill:#a7700b; stroke:none;" d="M129 214L128 216L129 214z"/>
<path style="fill:#090908; stroke:none;" d="M216 215C210.049 212.503 201.42 214 195 214L149 214C145.808 214 127.905 212.035 128.921 217.741C129.679 221.991 146.626 220 150 220C169.108 220 199.797 225.875 216 215z"/>
<path style="fill:#a7700b; stroke:none;" d="M216 214L217 215L216 214z"/>
<path style="fill:#d8e3e1; stroke:none;" d="M348 214L348 217L349 217L348 214z"/>
<path style="fill:#a7700b; stroke:none;" d="M215 215L216 216L215 215M213 216L214 217L213 216z"/>
<path style="fill:#55b30d; stroke:none;" d="M212 217L213 218L212 217z"/>
<path style="fill:#a7700b; stroke:none;" d="M244 217L245 218L244 217M210 218L211 219L210 218M230.667 218.333L231.333 218.667L230.667 218.333z"/>
<path style="fill:#d8e3e1; stroke:none;" d="M12 219L12 222L13 222L12 219z"/>
<path style="fill:#a7700b; stroke:none;" d="M128 219L129 220L128 219M209 219L210 220L209 219z"/>
<path style="fill:#55b30d; stroke:none;" d="M226 219L227 220L226 219z"/>
<path style="fill:#a7700b; stroke:none;" d="M227 219L228 220L227 219z"/>
<path style="fill:#d8e3e1; stroke:none;" d="M347.333 219.667L347.667 220.333L347.333 219.667z"/>
<path style="fill:#55b30d; stroke:none;" d="M129 220L130 221L129 220z"/>
<path style="fill:#a7700b; stroke:none;" d="M130 220L130 221L209 221L184 220L130 220M224 220L225 221L224 220M222 221L223 222L222 221M220 222L221 223L220 222M256.667 222.333L257.333 222.667L256.667 222.333z"/>
<path style="fill:#d8e3e1; stroke:none;" d="M13 223L13 226L14 226L13 223z"/>
<path style="fill:#a7700b; stroke:none;" d="M218 223L219 224L218 223M258 223L259 224L258 223M260 224L261 225L260 224z"/>
<path style="fill:#d8e3e1; stroke:none;" d="M346 224L347 225L346 224z"/>
<path style="fill:#a7700b; stroke:none;" d="M215 225L216 226L215 225M234 225L235 226L234 225z"/>
<path style="fill:#55b30d; stroke:none;" d="M235 225.44C195.17 231.52 203.411 292.919 243 286.56C281.822 280.324 273.637 219.542 235 225.44z"/>
<path style="fill:#a7700b; stroke:none;" d="M242 225L243 226L242 225M261 225L262 226L261 225M214 226L215 227L214 226M247 226L248 227L247 226M262 226L263 227L262 226z"/>
<path style="fill:#d8e3e1; stroke:none;" d="M14.3333 227.667L14.6667 228.333L14.3333 227.667z"/>
<path style="fill:#a7700b; stroke:none;" d="M264 227L265 228L264 227z"/>
<path style="fill:#d8e3e1; stroke:none;" d="M345.333 227.667L345.667 228.333L345.333 227.667z"/>
<path style="fill:#a7700b; stroke:none;" d="M224 228L225 229L224 228M265 228L266 229L265 228M266 229L267 230L266 229z"/>
<path style="fill:#d8e3e1; stroke:none;" d="M15.3333 230.667L15.6667 231.333L15.3333 230.667M344.333 230.667L344.667 231.333L344.333 230.667z"/>
<path style="fill:#a7700b; stroke:none;" d="M209 231L210 232L209 231M208 232L209 233L208 232M258 232L259 233L258 232M268 232L269 233L268 232z"/>
<path style="fill:#d8e3e1; stroke:none;" d="M16.3333 233.667L16.6667 234.333L16.3333 233.667z"/>
<path style="fill:#a7700b; stroke:none;" d="M207 233L208 234L207 233M217 233L218 234L217 233M259 233L260 234L259 233M269 233L270 234L269 233M216 234L217 235L216 234M260 234L261 235L260 234M270 234L271 235L270 234z"/>
<path style="fill:#d8e3e1; stroke:none;" d="M343 234L344 235L343 234z"/>
<path style="fill:#a7700b; stroke:none;" d="M206 235L207 236L206 235M261 235L262 236L261 235z"/>
<path style="fill:#d8e3e1; stroke:none;" d="M17.3333 236.667L17.6667 237.333L17.3333 236.667z"/>
<path style="fill:#a7700b; stroke:none;" d="M262 236L263 237L262 236M271 236L272 237L271 236M128 239L131 238L128 239z"/>
<path style="fill:#090908; stroke:none;" d="M195 237L170 237L153 237L143 237C140.869 237 124.352 236.558 129.662 242.412C132.646 245.702 141.974 244 146 244L181 244C187.875 244 193.696 245.115 195 237z"/>
<path style="fill:#a7700b; stroke:none;" d="M195.333 237.667L195.667 238.333L195.333 237.667z"/>
<path style="fill:#d8e3e1; stroke:none;" d="M342 237L343 238L342 237z"/>
<path style="fill:#a7700b; stroke:none;" d="M204 238L205 239L204 238M272 238L273 239L272 238z"/>
<path style="fill:#d8e3e1; stroke:none;" d="M18 239L19 240L18 239M235 261C232.028 258.156 219.026 246.067 217.801 257.044C217.115 263.188 230.951 275.426 236.961 273.377C243.909 271.008 255.465 254.508 258.685 248C261.37 242.574 256.994 236.539 251.286 240.604C245.142 244.98 238.427 254.358 235 261z"/>
<path style="fill:#a7700b; stroke:none;" d="M264 239L265 240L264 239z"/>
<path style="fill:#d8e3e1; stroke:none;" d="M341 239L342 240L341 239z"/>
<path style="fill:#a7700b; stroke:none;" d="M194.333 240.667L194.667 241.333L194.333 240.667M203.333 240.667L203.667 241.333L203.333 240.667M273 240L274 241L273 240M211 241L212 242L211 241z"/>
<path style="fill:#d8e3e1; stroke:none;" d="M19 242L20 243L19 242z"/>
<path style="fill:#a7700b; stroke:none;" d="M128 242L129 243L128 242M274.333 242.667L274.667 243.333L274.333 242.667z"/>
<path style="fill:#d8e3e1; stroke:none;" d="M340 242L341 243L340 242z"/>
<path style="fill:#a7700b; stroke:none;" d="M129 243L130 244L129 243M193 243L194 244L193 243M202 243L203 244L202 243M210 243L211 244L210 243z"/>
<path style="fill:#d8e3e1; stroke:none;" d="M20.3333 244.667L20.6667 245.333L20.3333 244.667M339 244L340 245L339 244z"/>
<path style="fill:#a7700b; stroke:none;" d="M267 245L268 246L267 245M275.333 245.667L275.667 246.333L275.333 245.667M201.333 246.667L201.667 247.333L201.333 246.667z"/>
<path style="fill:#d8e3e1; stroke:none;" d="M21 247L22 248L21 247M338 247L339 248L338 247M22 249L23 250L22 249z"/>
<path style="fill:#a7700b; stroke:none;" d="M208 249L209 250L208 249M276 249L276 255L277 255L276 249z"/>
<path style="fill:#d8e3e1; stroke:none;" d="M337 249L338 250L337 249M23.3333 251.667L23.6667 252.333L23.3333 251.667z"/>
<path style="fill:#a7700b; stroke:none;" d="M200 251L200 261L201 261L200 251z"/>
<path style="fill:#d8e3e1; stroke:none;" d="M336 251L337 252L336 251M24 254L25 255L24 254M335 254L336 255L335 254M25 256L26 257L25 256M334 256L335 257L334 256M26 257L27 258L26 257z"/>
<path style="fill:#a7700b; stroke:none;" d="M276 257L276 263L277 263L276 257z"/>
<path style="fill:#55b30d; stroke:none;" d="M106 258L107 259L106 258z"/>
<path style="fill:#d8e3e1; stroke:none;" d="M27.3333 259.667L27.6667 260.333L27.3333 259.667z"/>
<path style="fill:#a7700b; stroke:none;" d="M106 260L107 261L106 260z"/>
<path style="fill:#d8e3e1; stroke:none;" d="M28.3333 261.667L28.6667 262.333L28.3333 261.667M331 261L332 262L331 261z"/>
<path style="fill:#a7700b; stroke:none;" d="M107 262L108 263L107 262M208 262L209 263L208 262z"/>
<path style="fill:#d8e3e1; stroke:none;" d="M29 263L30 264L29 263z"/>
<path style="fill:#a7700b; stroke:none;" d="M109 263L110 264L109 263z"/>
<path style="fill:#55b30d; stroke:none;" d="M110 263L111 264L110 263z"/>
<path style="fill:#a7700b; stroke:none;" d="M111 263L112 264L111 263z"/>
<path style="fill:#55b30d; stroke:none;" d="M112 263L112 264L168 264L150 263L112 263z"/>
<path style="fill:#a7700b; stroke:none;" d="M168 263L169 264L168 263z"/>
<path style="fill:#55b30d; stroke:none;" d="M169 263L170 264L169 263z"/>
<path style="fill:#a7700b; stroke:none;" d="M170 263L171 264L170 263z"/>
<path style="fill:#55b30d; stroke:none;" d="M171 263L172 264L171 263z"/>
<path style="fill:#a7700b; stroke:none;" d="M172.667 263.333L173.333 263.667L172.667 263.333z"/>
<path style="fill:#55b30d; stroke:none;" d="M174 263L175 264L174 263z"/>
<path style="fill:#a7700b; stroke:none;" d="M175 263L175 264L201 264L175 263z"/>
<path style="fill:#d8e3e1; stroke:none;" d="M330 263L331 264L330 263M30 265L31 266L30 265z"/>
<path style="fill:#a7700b; stroke:none;" d="M275.333 265.667L275.667 266.333L275.333 265.667z"/>
<path style="fill:#d8e3e1; stroke:none;" d="M329 265L330 266L329 265z"/>
<path style="fill:#a7700b; stroke:none;" d="M95.3333 266.667L95.6667 267.333L95.3333 266.667z"/>
<path style="fill:#d8e3e1; stroke:none;" d="M31 267L32 268L31 267M328 267L329 268L328 267M32 268L33 269L32 268z"/>
<path style="fill:#a7700b; stroke:none;" d="M210 268L211 269L210 268M274.333 268.667L274.667 269.333L274.333 268.667z"/>
<path style="fill:#d8e3e1; stroke:none;" d="M33 270L34 271L33 270z"/>
<path style="fill:#a7700b; stroke:none;" d="M97 270L98 271L97 270z"/>
<path style="fill:#d8e3e1; stroke:none;" d="M326 270L327 271L326 270z"/>
<path style="fill:#a7700b; stroke:none;" d="M98 271L99 272L98 271M273 271L274 272L273 271z"/>
<path style="fill:#d8e3e1; stroke:none;" d="M34 272L35 273L34 272z"/>
<path style="fill:#a7700b; stroke:none;" d="M99 272L100 273L99 272z"/>
<path style="fill:#d8e3e1; stroke:none;" d="M35 273L36 274L35 273z"/>
<path style="fill:#a7700b; stroke:none;" d="M100 273L101 274L100 273M272 273L273 274L272 273z"/>
<path style="fill:#d8e3e1; stroke:none;" d="M324 273L325 274L324 273z"/>
<path style="fill:#a7700b; stroke:none;" d="M102 274L103 275L102 274z"/>
<path style="fill:#d8e3e1; stroke:none;" d="M36 275L37 276L36 275z"/>
<path style="fill:#a7700b; stroke:none;" d="M104 275L104 276L206 276L175 275L104 275M262 275L263 276L262 275M271 275L272 276L271 275z"/>
<path style="fill:#d8e3e1; stroke:none;" d="M37 276L38 277L37 276z"/>
<path style="fill:#a7700b; stroke:none;" d="M206 276L207 277L206 276M215 276L216 277L215 276M261 276L262 277L261 276M270 276L271 277L270 276z"/>
<path style="fill:#d8e3e1; stroke:none;" d="M322 276L323 277L322 276z"/>
<path style="fill:#a7700b; stroke:none;" d="M216 277L217 278L216 277z"/>
<path style="fill:#d8e3e1; stroke:none;" d="M38 278L39 279L38 278z"/>
<path style="fill:#a7700b; stroke:none;" d="M207 278L208 279L207 278M217 278L218 279L217 278M269 278L270 279L269 278z"/>
<path style="fill:#d8e3e1; stroke:none;" d="M321 278L322 279L321 278M39 279L40 280L39 279z"/>
<path style="fill:#a7700b; stroke:none;" d="M208 279L209 280L208 279M268 279L269 280L268 279z"/>
<path style="fill:#d8e3e1; stroke:none;" d="M320 279L321 280L320 279M40.3333 280.667L40.6667 281.333L40.3333 280.667z"/>
<path style="fill:#a7700b; stroke:none;" d="M209 280L210 281L209 280M267 280L268 281L267 280M210 281L211 282L210 281M266 281L267 282L266 281z"/>
<path style="fill:#d8e3e1; stroke:none;" d="M41 282L42 283L41 282z"/>
<path style="fill:#a7700b; stroke:none;" d="M211 282L212 283L211 282z"/>
<path style="fill:#d8e3e1; stroke:none;" d="M318 282L319 283L318 282M42 283L43 284L42 283z"/>
<path style="fill:#a7700b; stroke:none;" d="M212 283L213 284L212 283M252 283L253 284L252 283z"/>
<path style="fill:#d8e3e1; stroke:none;" d="M317 283L318 284L317 283z"/>
<path style="fill:#a7700b; stroke:none;" d="M213 284L214 285L213 284M263 284L264 285L263 284M214 285L215 286L214 285M229 285L230 286L229 285M262 285L263 286L262 285z"/>
<path style="fill:#d8e3e1; stroke:none;" d="M44 286L45 287L44 286z"/>
<path style="fill:#a7700b; stroke:none;" d="M215 286L216 287L215 286M233 286L234 287L233 286M243 286L244 287L243 286M261 286L262 287L261 286z"/>
<path style="fill:#d8e3e1; stroke:none;" d="M45 287L46 288L45 287z"/>
<path style="fill:#a7700b; stroke:none;" d="M217 287L218 288L217 287M260 287L261 288L260 287z"/>
<path style="fill:#d8e3e1; stroke:none;" d="M314 287L315 288L314 287M46 288L47 289L46 288z"/>
<path style="fill:#a7700b; stroke:none;" d="M218 288L219 289L218 288M258 288L259 289L258 288z"/>
<path style="fill:#d8e3e1; stroke:none;" d="M313 288L314 289L313 288M47.3333 289.667L47.6667 290.333L47.3333 289.667z"/>
<path style="fill:#a7700b; stroke:none;" d="M220 289L221 290L220 289M256.667 289.333L257.333 289.667L256.667 289.333M222 290L223 291L222 290M254.667 290.333L255.333 290.667L254.667 290.333z"/>
<path style="fill:#d8e3e1; stroke:none;" d="M48 291L49 292L48 291z"/>
<path style="fill:#a7700b; stroke:none;" d="M224.667 291.333L225.333 291.667L224.667 291.333M251.667 291.333L252.333 291.667L251.667 291.333z"/>
<path style="fill:#d8e3e1; stroke:none;" d="M49 292L50 293L49 292z"/>
<path style="fill:#a7700b; stroke:none;" d="M227.667 292.333L228.333 292.667L227.667 292.333M248 292L248 293L251 293L248 292z"/>
<path style="fill:#d8e3e1; stroke:none;" d="M310 292L311 293L310 292M50 293L51 294L50 293z"/>
<path style="fill:#a7700b; stroke:none;" d="M230 293L230 294L235 294L230 293M243 293L243 294L247 294L243 293z"/>
<path style="fill:#d8e3e1; stroke:none;" d="M309 293L310 294L309 293M51 294L52 295L51 294M308 294L309 295L308 294M52 295L53 296L52 295M307 295L308 296L307 295M53 296L54 297L53 296M306 296L307 297L306 296M54 297L55 298L54 297M55 298L56 299L55 298M57 301L58 302L57 301M59 303L60 304L59 303M61 304L62 305L61 304M62 305L63 306L62 305M63 306L64 307L63 306M296 306L297 307L296 306M64 307L65 308L64 307M295 307L296 308L295 307M65 308L66 309L65 308M294 308L295 309L294 308M66 309L67 310L66 309M293 309L294 310L293 309M67 310L68 311L67 310M292 310L293 311L292 310M68 311L69 312L68 311M69.6667 312.333L70.3333 312.667L69.6667 312.333M71 313L72 314L71 313M288 313L289 314L288 313M72 314L73 315L72 314M287 314L288 315L287 314M73 315L74 316L73 315M76 317L77 318L76 317M283 317L284 318L283 317M77 318L78 319L77 318M282 318L283 319L282 318M78.6667 319.333L79.3333 319.667L78.6667 319.333M80 320L81 321L80 320M279 320L280 321L279 320M81 321L82 322L81 321M278 321L279 322L278 321M83 322L84 323L83 322M276 322L277 323L276 322M84 323L85 324L84 323M86 324L87 325L86 324M273 324L274 325L273 324M87 325L88 326L87 325M89 326L90 327L89 326M270 326L271 327L270 326M91 327L92 328L91 327M92 328L93 329L92 328M267 328L268 329L267 328M94 329L95 330L94 329M265 329L266 330L265 329M96 330L97 331L96 330M263 330L264 331L263 330M97.6667 331.333L98.3333 331.667L97.6667 331.333M261 331L262 332L261 331M99.6667 332.333L100.333 332.667L99.6667 332.333M102 333L103 334L102 333M103 334L104 335L103 334M105.667 335.333L106.333 335.667L105.667 335.333M254 335L255 336L254 335M107.667 336.333L108.333 336.667L107.667 336.333M251 336L252 337L251 336M110 337L111 338L110 337M249 337L250 338L249 337M112.667 338.333L113.333 338.667L112.667 338.333M247 338L248 339L247 338M114.667 339.333L115.333 339.667L114.667 339.333M244 339L245 340L244 339M117 340L118 341L117 340M242 340L243 341L242 340M120 341L121 342L120 341M239 341L240 342L239 341M122.667 342.333L123.333 342.667L122.667 342.333M236 342L237 343L236 342M125.667 343.333L126.333 343.667L125.667 343.333M234 343L235 344L234 343M128.667 344.333L129.333 344.667L128.667 344.333M230.667 344.333L231.333 344.667L230.667 344.333M131.667 345.333L132.333 345.667L131.667 345.333M227 345L228 346L227 345M135.667 346.333L136.333 346.667L135.667 346.333M224 346L225 347L224 346M139.667 347.333L140.333 347.667L139.667 347.333M219.667 347.333L220.333 347.667L219.667 347.333M143 348L143 349L146 349L143 348M214 348L214 349L217 349L214 348M149.667 349.333L150.333 349.667L149.667 349.333M210.667 349.333L211.333 349.667L210.667 349.333M154 350L154 351L158 351L154 350M203 350L203 351L206 351L203 350M162 351L162 352L168 352L162 351M193 351L193 352L198 352L193 351z"/>
</svg>
